<svg xmlns="http://www.w3.org/2000/svg" xmlns:xlink="http://www.w3.org/1999/xlink" width="106" zoomAndPan="magnify" viewBox="0 0 79.5 79.499996" height="106" preserveAspectRatio="xMidYMid meet" version="1.2"><defs><clipPath id="ca41462878"><path d="M 0 0 L 78.855469 0 L 78.855469 78.855469 L 0 78.855469 Z M 0 0 "/></clipPath><clipPath id="3580655637"><path d="M 39.425781 0 C 17.652344 0 0 17.652344 0 39.425781 C 0 61.203125 17.652344 78.855469 39.425781 78.855469 C 61.203125 78.855469 78.855469 61.203125 78.855469 39.425781 C 78.855469 17.652344 61.203125 0 39.425781 0 Z M 39.425781 0 "/></clipPath><clipPath id="f6dd35b072"><path d="M 12.910156 14.210938 L 72 14.210938 L 72 76 L 12.910156 76 Z M 12.910156 14.210938 "/></clipPath><clipPath id="7d36734424"><path d="M 29.832031 28.0625 L 47.53125 28.0625 L 47.53125 49.519531 L 29.832031 49.519531 Z M 29.832031 28.0625 "/></clipPath></defs><g id="504e07a4d2"><g clip-rule="nonzero" clip-path="url(#ca41462878)"><g clip-rule="nonzero" clip-path="url(#3580655637)"><path style=" stroke:none;fill-rule:nonzero;fill:#302f92;fill-opacity:1;" d="M 0 0 L 78.855469 0 L 78.855469 78.855469 L 0 78.855469 Z M 0 0 "/></g></g><g clip-rule="nonzero" clip-path="url(#f6dd35b072)"><path style=" stroke:none;fill-rule:evenodd;fill:#ffffff;fill-opacity:1;" d="M 38.015625 14.210938 C 31.355469 14.210938 24.972656 16.855469 20.265625 21.5625 C 15.558594 26.269531 12.914062 32.652344 12.914062 39.308594 C 12.914062 45.964844 15.558594 52.347656 20.265625 57.054688 C 24.972656 61.761719 31.355469 64.40625 38.015625 64.40625 C 42.191406 64.382812 46.300781 63.320312 49.960938 61.308594 L 62.285156 73.835938 C 64.460938 76.046875 67.992188 76.078125 70.203125 73.902344 C 72.417969 71.726562 72.445312 68.191406 70.269531 65.980469 L 58.375 53.886719 C 61.433594 49.640625 63.089844 44.542969 63.113281 39.308594 C 63.113281 32.652344 60.46875 26.269531 55.761719 21.5625 C 51.054688 16.855469 44.671875 14.210938 38.015625 14.210938 Z M 38.300781 21.507812 C 42.75 21.507812 47.011719 23.359375 50.160156 26.652344 C 53.304688 29.941406 55.070312 34.410156 55.070312 39.066406 C 55.058594 44.109375 52.976562 48.90625 49.347656 52.234375 C 49.265625 52.304688 49.1875 52.378906 49.109375 52.453125 C 49.066406 52.496094 49.023438 52.542969 48.980469 52.585938 C 45.976562 55.191406 42.199219 56.617188 38.300781 56.621094 C 33.851562 56.621094 29.585938 54.769531 26.441406 51.480469 C 23.296875 48.1875 21.53125 43.722656 21.53125 39.066406 C 21.53125 34.410156 23.296875 29.941406 26.441406 26.652344 C 29.585938 23.359375 33.851562 21.507812 38.300781 21.507812 Z M 38.300781 21.507812 "/></g><g clip-rule="nonzero" clip-path="url(#7d36734424)"><path style=" stroke:none;fill-rule:nonzero;fill:#ffffff;fill-opacity:1;" d="M 30.75 46.21875 C 31.445312 47.40625 32.5 48.296875 33.847656 48.824219 C 34.691406 49.152344 35.578125 49.316406 36.519531 49.316406 C 36.898438 49.316406 37.292969 49.285156 37.6875 49.234375 C 39.203125 49.039062 40.570312 48.445312 41.773438 47.472656 C 41.792969 47.457031 41.824219 47.4375 41.839844 47.421875 C 41.839844 47.421875 42.582031 48.28125 42.863281 48.625 C 42.976562 48.773438 43.125 48.839844 43.308594 48.839844 C 44.082031 48.839844 46.570312 48.839844 46.570312 48.839844 C 47 48.839844 47.164062 48.609375 47.195312 48.511719 C 47.246094 48.410156 47.3125 48.132812 47.03125 47.800781 L 44.179688 44.539062 C 44.511719 43.945312 44.757812 43.304688 44.9375 42.546875 C 45.085938 41.953125 45.167969 41.324219 45.234375 40.535156 L 46.4375 40.535156 C 46.980469 40.535156 47.425781 40.089844 47.425781 39.546875 L 47.425781 38.164062 C 47.425781 37.617188 46.980469 37.171875 46.4375 37.171875 L 42.878906 37.171875 C 42.335938 37.171875 41.890625 37.617188 41.890625 38.164062 C 41.890625 38.589844 41.859375 39.132812 41.859375 39.464844 C 41.859375 40.417969 41.59375 41.605469 41.578125 41.65625 L 38.925781 38.671875 C 39.535156 38.292969 40.257812 37.785156 40.867188 37.109375 C 42.054688 35.804688 42.515625 34.242188 42.21875 32.445312 C 41.972656 30.828125 41.066406 29.628906 39.535156 28.871094 C 38.199219 28.210938 36.714844 28.0625 35.167969 28.425781 C 33.964844 28.722656 32.992188 29.363281 32.285156 30.300781 C 31.742188 31.011719 31.425781 31.867188 31.3125 32.824219 C 31.214844 33.8125 31.328125 34.703125 31.675781 35.507812 C 31.921875 36.070312 32.269531 36.613281 32.8125 37.273438 C 32.925781 37.40625 33.027344 37.535156 33.140625 37.652344 C 32.960938 37.785156 32.761719 37.933594 32.5625 38.0625 C 31.675781 38.753906 31.015625 39.511719 30.585938 40.371094 C 30.09375 41.324219 29.878906 42.398438 29.960938 43.550781 C 30.027344 44.523438 30.289062 45.429688 30.75 46.21875 Z M 34.671875 33.1875 C 34.753906 32.460938 35.085938 31.933594 35.726562 31.621094 C 36.421875 31.292969 37.128906 31.292969 37.804688 31.621094 C 38.527344 31.96875 38.859375 32.726562 38.859375 33.515625 C 38.859375 34.390625 38.480469 35.066406 37.804688 35.558594 C 37.390625 35.855469 36.929688 36.101562 36.503906 36.382812 C 36.484375 36.398438 36.421875 36.382812 36.402344 36.367188 C 35.925781 35.871094 35.429688 35.394531 35.070312 34.785156 C 34.773438 34.308594 34.609375 33.78125 34.671875 33.1875 Z M 34.328125 40.734375 C 34.722656 40.417969 35.132812 40.140625 35.5625 39.84375 C 37.011719 41.507812 38.445312 43.136719 39.878906 44.785156 C 39.699219 45 39.5 45.183594 39.269531 45.328125 C 38.777344 45.660156 38.214844 45.839844 37.640625 45.941406 C 36.945312 46.039062 36.273438 46.039062 35.597656 45.855469 C 34.839844 45.644531 34.195312 45.230469 33.765625 44.539062 C 33.140625 43.535156 33.058594 41.753906 34.328125 40.734375 Z M 34.328125 40.734375 "/></g></g></svg>