<svg xmlns="http://www.w3.org/2000/svg" xmlns:xlink="http://www.w3.org/1999/xlink" width="468" zoomAndPan="magnify" viewBox="0 0 351 136.499996" height="182" preserveAspectRatio="xMidYMid meet" version="1.2"><defs><clipPath id="9d73ec927d"><path d="M 130.730469 64.3125 L 183 64.3125 L 183 118.863281 L 130.730469 118.863281 Z M 130.730469 64.3125 "/></clipPath><clipPath id="43d0b9078e"><path d="M 145.875 77.050781 L 160.820312 77.050781 L 160.820312 94.984375 L 145.875 94.984375 Z M 145.875 77.050781 "/></clipPath></defs><g id="dbdd6d2255"><g style="fill:#242424;fill-opacity:1;"><g transform="translate(23.790496, 101.014059)"><path style="stroke:none" d="M 10.078125 -5.703125 L 19.765625 -5.703125 L 19.765625 0 L 2.6875 0 L 2.6875 -30.34375 L 10.078125 -30.34375 Z M 10.078125 -5.703125 "/></g></g><g style="fill:#242424;fill-opacity:1;"><g transform="translate(43.150519, 101.014059)"><path style="stroke:none" d="M 17.03125 0.296875 C 14.175781 0.296875 11.5625 -0.363281 9.1875 -1.6875 C 6.8125 -3.007812 4.921875 -4.859375 3.515625 -7.234375 C 2.117188 -9.617188 1.421875 -12.296875 1.421875 -15.265625 C 1.421875 -18.234375 2.117188 -20.898438 3.515625 -23.265625 C 4.921875 -25.628906 6.8125 -27.472656 9.1875 -28.796875 C 11.5625 -30.117188 14.175781 -30.78125 17.03125 -30.78125 C 19.882812 -30.78125 22.5 -30.117188 24.875 -28.796875 C 27.257812 -27.472656 29.132812 -25.628906 30.5 -23.265625 C 31.875 -20.898438 32.5625 -18.234375 32.5625 -15.265625 C 32.5625 -12.296875 31.867188 -9.617188 30.484375 -7.234375 C 29.097656 -4.859375 27.222656 -3.007812 24.859375 -1.6875 C 22.492188 -0.363281 19.882812 0.296875 17.03125 0.296875 Z M 17.03125 -6.4375 C 19.457031 -6.4375 21.394531 -7.242188 22.84375 -8.859375 C 24.300781 -10.472656 25.03125 -12.609375 25.03125 -15.265625 C 25.03125 -17.941406 24.300781 -20.078125 22.84375 -21.671875 C 21.394531 -23.273438 19.457031 -24.078125 17.03125 -24.078125 C 14.582031 -24.078125 12.628906 -23.285156 11.171875 -21.703125 C 9.722656 -20.117188 9 -17.972656 9 -15.265625 C 9 -12.578125 9.722656 -10.429688 11.171875 -8.828125 C 12.628906 -7.234375 14.582031 -6.4375 17.03125 -6.4375 Z M 17.03125 -6.4375 "/></g></g><g style="fill:#242424;fill-opacity:1;"><g transform="translate(75.864333, 101.014059)"><path style="stroke:none" d="M 13.65625 0.296875 C 11.4375 0.296875 9.445312 -0.0625 7.6875 -0.78125 C 5.9375 -1.5 4.535156 -2.5625 3.484375 -3.96875 C 2.429688 -5.382812 1.875 -7.085938 1.8125 -9.078125 L 9.6875 -9.078125 C 9.800781 -7.953125 10.1875 -7.09375 10.84375 -6.5 C 11.507812 -5.914062 12.378906 -5.625 13.453125 -5.625 C 14.546875 -5.625 15.40625 -5.875 16.03125 -6.375 C 16.664062 -6.882812 16.984375 -7.582031 16.984375 -8.46875 C 16.984375 -9.21875 16.734375 -9.835938 16.234375 -10.328125 C 15.734375 -10.816406 15.113281 -11.21875 14.375 -11.53125 C 13.632812 -11.851562 12.585938 -12.21875 11.234375 -12.625 C 9.273438 -13.226562 7.675781 -13.832031 6.4375 -14.4375 C 5.195312 -15.039062 4.128906 -15.929688 3.234375 -17.109375 C 2.347656 -18.296875 1.90625 -19.84375 1.90625 -21.75 C 1.90625 -24.570312 2.925781 -26.78125 4.96875 -28.375 C 7.019531 -29.976562 9.6875 -30.78125 12.96875 -30.78125 C 16.3125 -30.78125 19.003906 -29.976562 21.046875 -28.375 C 23.097656 -26.78125 24.195312 -24.554688 24.34375 -21.703125 L 16.34375 -21.703125 C 16.28125 -22.679688 15.914062 -23.453125 15.25 -24.015625 C 14.59375 -24.578125 13.742188 -24.859375 12.703125 -24.859375 C 11.816406 -24.859375 11.097656 -24.617188 10.546875 -24.140625 C 10.003906 -23.671875 9.734375 -22.988281 9.734375 -22.09375 C 9.734375 -21.113281 10.191406 -20.347656 11.109375 -19.796875 C 12.035156 -19.253906 13.476562 -18.664062 15.4375 -18.03125 C 17.394531 -17.363281 18.984375 -16.726562 20.203125 -16.125 C 21.429688 -15.519531 22.492188 -14.640625 23.390625 -13.484375 C 24.285156 -12.335938 24.734375 -10.851562 24.734375 -9.03125 C 24.734375 -7.300781 24.289062 -5.726562 23.40625 -4.3125 C 22.53125 -2.90625 21.253906 -1.785156 19.578125 -0.953125 C 17.910156 -0.117188 15.9375 0.296875 13.65625 0.296875 Z M 13.65625 0.296875 "/></g></g><g style="fill:#242424;fill-opacity:1;"><g transform="translate(101.188189, 101.014059)"><path style="stroke:none" d="M 24.515625 -30.34375 L 24.515625 -24.421875 L 16.46875 -24.421875 L 16.46875 0 L 9.078125 0 L 9.078125 -24.421875 L 1.03125 -24.421875 L 1.03125 -30.34375 Z M 24.515625 -30.34375 "/></g></g><g style="fill:#242424;fill-opacity:1;"><g transform="translate(125.477805, 101.014059)"><path style="stroke:none" d=""/></g></g><g style="fill:#242424;fill-opacity:1;"><g transform="translate(133.385559, 101.014059)"><path style="stroke:none" d=""/></g></g><g style="fill:#242424;fill-opacity:1;"><g transform="translate(141.293313, 101.014059)"><path style="stroke:none" d=""/></g></g><g style="fill:#242424;fill-opacity:1;"><g transform="translate(149.201066, 101.014059)"><path style="stroke:none" d=""/></g></g><g style="fill:#242424;fill-opacity:1;"><g transform="translate(157.10882, 101.014059)"><path style="stroke:none" d=""/></g></g><g style="fill:#242424;fill-opacity:1;"><g transform="translate(165.016574, 101.014059)"><path style="stroke:none" d=""/></g></g><g style="fill:#242424;fill-opacity:1;"><g transform="translate(172.924327, 101.014059)"><path style="stroke:none" d=""/></g></g><g style="fill:#242424;fill-opacity:1;"><g transform="translate(180.839901, 101.014059)"><path style="stroke:none" d="M 22.4375 -30.34375 L 22.4375 -24.421875 L 10.078125 -24.421875 L 10.078125 -18.03125 L 19.328125 -18.03125 L 19.328125 -12.28125 L 10.078125 -12.28125 L 10.078125 0 L 2.6875 0 L 2.6875 -30.34375 Z M 22.4375 -30.34375 "/></g></g><g style="fill:#242424;fill-opacity:1;"><g transform="translate(203.225049, 101.014059)"><path style="stroke:none" d="M 17.03125 0.296875 C 14.175781 0.296875 11.5625 -0.363281 9.1875 -1.6875 C 6.8125 -3.007812 4.921875 -4.859375 3.515625 -7.234375 C 2.117188 -9.617188 1.421875 -12.296875 1.421875 -15.265625 C 1.421875 -18.234375 2.117188 -20.898438 3.515625 -23.265625 C 4.921875 -25.628906 6.8125 -27.472656 9.1875 -28.796875 C 11.5625 -30.117188 14.175781 -30.78125 17.03125 -30.78125 C 19.882812 -30.78125 22.5 -30.117188 24.875 -28.796875 C 27.257812 -27.472656 29.132812 -25.628906 30.5 -23.265625 C 31.875 -20.898438 32.5625 -18.234375 32.5625 -15.265625 C 32.5625 -12.296875 31.867188 -9.617188 30.484375 -7.234375 C 29.097656 -4.859375 27.222656 -3.007812 24.859375 -1.6875 C 22.492188 -0.363281 19.882812 0.296875 17.03125 0.296875 Z M 17.03125 -6.4375 C 19.457031 -6.4375 21.394531 -7.242188 22.84375 -8.859375 C 24.300781 -10.472656 25.03125 -12.609375 25.03125 -15.265625 C 25.03125 -17.941406 24.300781 -20.078125 22.84375 -21.671875 C 21.394531 -23.273438 19.457031 -24.078125 17.03125 -24.078125 C 14.582031 -24.078125 12.628906 -23.285156 11.171875 -21.703125 C 9.722656 -20.117188 9 -17.972656 9 -15.265625 C 9 -12.578125 9.722656 -10.429688 11.171875 -8.828125 C 12.628906 -7.234375 14.582031 -6.4375 17.03125 -6.4375 Z M 17.03125 -6.4375 "/></g></g><g style="fill:#242424;fill-opacity:1;"><g transform="translate(235.938862, 101.014059)"><path style="stroke:none" d="M 9.9375 -30.34375 L 9.9375 -12.1875 C 9.9375 -10.375 10.382812 -8.976562 11.28125 -8 C 12.175781 -7.019531 13.488281 -6.53125 15.21875 -6.53125 C 16.945312 -6.53125 18.269531 -7.019531 19.1875 -8 C 20.113281 -8.976562 20.578125 -10.375 20.578125 -12.1875 L 20.578125 -30.34375 L 27.96875 -30.34375 L 27.96875 -12.234375 C 27.96875 -9.523438 27.390625 -7.234375 26.234375 -5.359375 C 25.085938 -3.484375 23.539062 -2.070312 21.59375 -1.125 C 19.644531 -0.175781 17.476562 0.296875 15.09375 0.296875 C 12.695312 0.296875 10.554688 -0.164062 8.671875 -1.09375 C 6.785156 -2.03125 5.289062 -3.441406 4.1875 -5.328125 C 3.09375 -7.222656 2.546875 -9.523438 2.546875 -12.234375 L 2.546875 -30.34375 Z M 9.9375 -30.34375 "/></g></g><g style="fill:#242424;fill-opacity:1;"><g transform="translate(265.152154, 101.014059)"><path style="stroke:none" d="M 29.828125 0 L 22.4375 0 L 10.078125 -18.71875 L 10.078125 0 L 2.6875 0 L 2.6875 -30.34375 L 10.078125 -30.34375 L 22.4375 -11.546875 L 22.4375 -30.34375 L 29.828125 -30.34375 Z M 29.828125 0 "/></g></g><g style="fill:#242424;fill-opacity:1;"><g transform="translate(296.396613, 101.014059)"><path style="stroke:none" d="M 14.046875 -30.34375 C 17.242188 -30.34375 20.039062 -29.707031 22.4375 -28.4375 C 24.832031 -27.175781 26.6875 -25.398438 28 -23.109375 C 29.3125 -20.816406 29.96875 -18.171875 29.96875 -15.171875 C 29.96875 -12.203125 29.3125 -9.5625 28 -7.25 C 26.6875 -4.945312 24.828125 -3.160156 22.421875 -1.890625 C 20.015625 -0.628906 17.222656 0 14.046875 0 L 2.6875 0 L 2.6875 -30.34375 Z M 13.578125 -6.40625 C 16.367188 -6.40625 18.539062 -7.164062 20.09375 -8.6875 C 21.65625 -10.21875 22.4375 -12.378906 22.4375 -15.171875 C 22.4375 -17.972656 21.65625 -20.148438 20.09375 -21.703125 C 18.539062 -23.253906 16.367188 -24.03125 13.578125 -24.03125 L 10.078125 -24.03125 L 10.078125 -6.40625 Z M 13.578125 -6.40625 "/></g></g><g clip-rule="nonzero" clip-path="url(#9d73ec927d)"><path style=" stroke:none;fill-rule:evenodd;fill:#302f92;fill-opacity:1;" d="M 152.867188 64.3125 C 147 64.3125 141.371094 66.644531 137.222656 70.796875 C 133.070312 74.945312 130.738281 80.574219 130.738281 86.445312 C 130.738281 92.3125 133.070312 97.941406 137.222656 102.09375 C 141.371094 106.242188 147 108.574219 152.867188 108.574219 C 156.554688 108.554688 160.175781 107.613281 163.40625 105.839844 L 174.269531 116.886719 C 176.1875 118.835938 179.300781 118.863281 181.253906 116.945312 C 183.203125 115.027344 183.230469 111.910156 181.3125 109.960938 L 170.820312 99.296875 C 173.519531 95.550781 174.980469 91.058594 175 86.445312 C 175 80.574219 172.667969 74.945312 168.515625 70.796875 C 164.367188 66.644531 158.738281 64.3125 152.867188 64.3125 Z M 153.121094 70.75 C 157.042969 70.75 160.804688 72.378906 163.578125 75.28125 C 166.351562 78.1875 167.910156 82.125 167.910156 86.230469 C 167.898438 90.679688 166.0625 94.90625 162.863281 97.839844 C 162.792969 97.902344 162.722656 97.964844 162.652344 98.035156 C 162.613281 98.070312 162.578125 98.109375 162.539062 98.148438 C 159.890625 100.445312 156.5625 101.703125 153.121094 101.707031 C 149.199219 101.707031 145.4375 100.078125 142.664062 97.175781 C 139.894531 94.269531 138.335938 90.335938 138.335938 86.230469 C 138.335938 82.125 139.894531 78.1875 142.664062 75.28125 C 145.4375 72.378906 149.199219 70.75 153.121094 70.75 Z M 153.121094 70.75 "/></g><g clip-rule="nonzero" clip-path="url(#43d0b9078e)"><path style=" stroke:none;fill-rule:nonzero;fill:#302f92;fill-opacity:1;" d="M 146.652344 92.371094 C 147.234375 93.371094 148.125 94.121094 149.265625 94.566406 C 149.972656 94.84375 150.726562 94.984375 151.515625 94.984375 C 151.835938 94.984375 152.171875 94.957031 152.503906 94.914062 C 153.785156 94.746094 154.9375 94.246094 155.953125 93.425781 C 155.964844 93.414062 155.992188 93.398438 156.007812 93.386719 C 156.007812 93.386719 156.632812 94.109375 156.871094 94.402344 C 156.96875 94.527344 157.09375 94.582031 157.246094 94.582031 C 157.898438 94.582031 159.996094 94.582031 159.996094 94.582031 C 160.359375 94.582031 160.5 94.386719 160.527344 94.304688 C 160.566406 94.21875 160.625 93.984375 160.386719 93.707031 L 157.980469 90.953125 C 158.261719 90.453125 158.46875 89.910156 158.621094 89.269531 C 158.746094 88.769531 158.816406 88.242188 158.871094 87.574219 L 159.886719 87.574219 C 160.34375 87.574219 160.722656 87.199219 160.722656 86.738281 L 160.722656 85.574219 C 160.722656 85.113281 160.34375 84.738281 159.886719 84.738281 L 156.882812 84.738281 C 156.425781 84.738281 156.050781 85.113281 156.050781 85.574219 C 156.050781 85.933594 156.023438 86.390625 156.023438 86.671875 C 156.023438 87.476562 155.800781 88.476562 155.785156 88.519531 L 153.546875 86.003906 C 154.0625 85.683594 154.671875 85.253906 155.1875 84.683594 C 156.1875 83.585938 156.578125 82.261719 156.328125 80.75 C 156.117188 79.386719 155.355469 78.371094 154.0625 77.730469 C 152.933594 77.175781 151.683594 77.050781 150.378906 77.355469 C 149.363281 77.605469 148.542969 78.148438 147.945312 78.941406 C 147.484375 79.539062 147.222656 80.261719 147.125 81.066406 C 147.039062 81.902344 147.136719 82.652344 147.429688 83.332031 C 147.636719 83.808594 147.929688 84.265625 148.390625 84.820312 C 148.488281 84.933594 148.570312 85.042969 148.667969 85.140625 C 148.515625 85.253906 148.347656 85.378906 148.179688 85.488281 C 147.429688 86.074219 146.875 86.710938 146.511719 87.433594 C 146.09375 88.242188 145.914062 89.144531 145.984375 90.117188 C 146.039062 90.9375 146.261719 91.703125 146.652344 92.371094 Z M 149.960938 81.375 C 150.03125 80.761719 150.308594 80.316406 150.851562 80.054688 C 151.433594 79.773438 152.03125 79.773438 152.601562 80.054688 C 153.214844 80.34375 153.492188 80.984375 153.492188 81.652344 C 153.492188 82.386719 153.171875 82.957031 152.601562 83.375 C 152.253906 83.625 151.863281 83.835938 151.503906 84.070312 C 151.488281 84.085938 151.433594 84.070312 151.417969 84.058594 C 151.015625 83.640625 150.601562 83.238281 150.292969 82.722656 C 150.042969 82.320312 149.90625 81.875 149.960938 81.375 Z M 149.667969 87.742188 C 150 87.476562 150.347656 87.242188 150.710938 86.992188 C 151.933594 88.394531 153.144531 89.769531 154.351562 91.160156 C 154.199219 91.34375 154.035156 91.496094 153.839844 91.621094 C 153.421875 91.898438 152.949219 92.050781 152.460938 92.132812 C 151.878906 92.21875 151.308594 92.21875 150.738281 92.066406 C 150.097656 91.882812 149.558594 91.535156 149.195312 90.953125 C 148.667969 90.105469 148.597656 88.601562 149.667969 87.742188 Z M 149.667969 87.742188 "/></g><g style="fill:#302f92;fill-opacity:1;"><g transform="translate(23.603168, 63.320332)"><path style="stroke:none" d="M 14.0625 -30.359375 C 17.257812 -30.359375 20.050781 -29.722656 22.4375 -28.453125 C 24.832031 -27.191406 26.6875 -25.410156 28 -23.109375 C 29.3125 -20.816406 29.96875 -18.175781 29.96875 -15.1875 C 29.96875 -12.207031 29.3125 -9.566406 28 -7.265625 C 26.6875 -4.960938 24.828125 -3.175781 22.421875 -1.90625 C 20.015625 -0.632812 17.226562 0 14.0625 0 L 2.6875 0 L 2.6875 -30.359375 Z M 13.578125 -6.40625 C 16.378906 -6.40625 18.554688 -7.164062 20.109375 -8.6875 C 21.671875 -10.21875 22.453125 -12.382812 22.453125 -15.1875 C 22.453125 -17.976562 21.671875 -20.148438 20.109375 -21.703125 C 18.554688 -23.265625 16.378906 -24.046875 13.578125 -24.046875 L 10.078125 -24.046875 L 10.078125 -6.40625 Z M 13.578125 -6.40625 "/></g></g><g style="fill:#302f92;fill-opacity:1;"><g transform="translate(53.783503, 63.320332)"><path style="stroke:none" d="M 10.078125 -30.359375 L 10.078125 0 L 2.6875 0 L 2.6875 -30.359375 Z M 10.078125 -30.359375 "/></g></g><g style="fill:#302f92;fill-opacity:1;"><g transform="translate(65.284791, 63.320332)"><path style="stroke:none" d="M 9.953125 -30.359375 L 9.953125 -12.203125 C 9.953125 -10.378906 10.394531 -8.976562 11.28125 -8 C 12.175781 -7.019531 13.488281 -6.53125 15.21875 -6.53125 C 16.945312 -6.53125 18.273438 -7.019531 19.203125 -8 C 20.128906 -8.976562 20.59375 -10.378906 20.59375 -12.203125 L 20.59375 -30.359375 L 27.984375 -30.359375 L 27.984375 -12.234375 C 27.984375 -9.523438 27.40625 -7.234375 26.25 -5.359375 C 25.09375 -3.484375 23.539062 -2.070312 21.59375 -1.125 C 19.65625 -0.175781 17.488281 0.296875 15.09375 0.296875 C 12.695312 0.296875 10.554688 -0.171875 8.671875 -1.109375 C 6.785156 -2.046875 5.289062 -3.457031 4.1875 -5.34375 C 3.09375 -7.226562 2.546875 -9.523438 2.546875 -12.234375 L 2.546875 -30.359375 Z M 9.953125 -30.359375 "/></g></g></g></svg>